<?xml version="1.0" encoding="utf-8"?>
<!-- Generator: Adobe Illustrator 23.0.0, SVG Export Plug-In . SVG Version: 6.00 Build 0)  -->
<svg version="1.1" id="Capa_1" xmlns="http://www.w3.org/2000/svg" xmlns:xlink="http://www.w3.org/1999/xlink" x="0px" y="0px"
	 viewBox="0 0 455 499" style="enable-background:new 0 0 455 499;" xml:space="preserve">
<style type="text/css">
	.st0{display:none;}
	.st1{fill:url(#SVGID_1_);}
	.st2{fill:url(#SVGID_2_);}
	.st3{fill:url(#SVGID_3_);}
	.st4{fill:url(#SVGID_4_);}
	.st5{fill:url(#SVGID_5_);}
	.st6{fill:url(#SVGID_6_);}
	.st7{fill:url(#SVGID_7_);}
	.st8{display:none;fill:none;stroke:#000000;stroke-width:5;stroke-miterlimit:10;}
	.st9{fill:#222222;}
	.st10{fill:#2DA88D;}
	.st11{font-family:'Gabriola';}
	.st12{font-size:94.7364px;}
	.st13{font-size:74.6034px;}
</style>
<g class="st0">
	
		<image style="display:inline;overflow:visible;enable-background:new    ;" width="627" height="538" xlink:href="4D3822D2.jpeg"  transform="matrix(0.7538 0 0 0.7359 8.86 -115.2532)">
	</image>
</g>
<g>
	<g id="Capa_4">
		<g>
			<g>
				
					<linearGradient id="SVGID_1_" gradientUnits="userSpaceOnUse" x1="457.9012" y1="0.11" x2="457.9012" y2="0.11" gradientTransform="matrix(1 0 0 -1 0 499.11)">
					<stop  offset="0" style="stop-color:#FFFF25"/>
					<stop  offset="0" style="stop-color:#FEE916"/>
					<stop  offset="0" style="stop-color:#FED50E"/>
					<stop  offset="0" style="stop-color:#FECA06"/>
					<stop  offset="0" style="stop-color:#FEC601"/>
					<stop  offset="0" style="stop-color:#FDBC09"/>
					<stop  offset="0.9569" style="stop-color:#F8401B"/>
				</linearGradient>
				<path class="st1" d="M457.9,499"/>
				<g>
					
						<linearGradient id="SVGID_2_" gradientUnits="userSpaceOnUse" x1="26.9788" y1="249.51" x2="237.9711" y2="249.51" gradientTransform="matrix(1 0 0 -1 0 499.11)">
						<stop  offset="0" style="stop-color:#FFFF25"/>
						<stop  offset="0" style="stop-color:#FEE916"/>
						<stop  offset="0" style="stop-color:#FED50E"/>
						<stop  offset="0" style="stop-color:#FECA06"/>
						<stop  offset="0" style="stop-color:#FEC601"/>
						<stop  offset="0" style="stop-color:#FDBC09"/>
						<stop  offset="0.9569" style="stop-color:#F8401B"/>
					</linearGradient>
					<path class="st2" d="M235.3,478.8c0,0-50.4-61.3-115.7-94.1c0,0-112.4-48.4-89.5-161.9c0,0,42.6-131.1,12-192.6
						c0,0,30.6,37.8,88.4,28.1C147.9,55.8,187,52,238,20.5"/>
					
						<linearGradient id="SVGID_3_" gradientUnits="userSpaceOnUse" x1="232.5311" y1="249.51" x2="438.6174" y2="249.51" gradientTransform="matrix(1 0 0 -1 0 499.11)">
						<stop  offset="0" style="stop-color:#FFFF25"/>
						<stop  offset="0" style="stop-color:#FEE916"/>
						<stop  offset="0" style="stop-color:#FED50E"/>
						<stop  offset="0" style="stop-color:#FECA06"/>
						<stop  offset="0" style="stop-color:#FEC601"/>
						<stop  offset="0" style="stop-color:#FDBC09"/>
						<stop  offset="0.9569" style="stop-color:#F8401B"/>
					</linearGradient>
					<path class="st3" d="M235.3,478.8c0,0,46.3-61.3,111.3-94.1c0,0,111.8-48.4,89-161.9c0,0-42.3-131.1-11.9-192.6
						c0,0-30.4,37.8-87.9,28.1c0,0-56.5-8.8-103.1-37.8"/>
					
						<linearGradient id="SVGID_4_" gradientUnits="userSpaceOnUse" x1="232.5211" y1="20.36" x2="232.5211" y2="20.36" gradientTransform="matrix(1 0 0 -1 0 499.11)">
						<stop  offset="0" style="stop-color:#FFFF25"/>
						<stop  offset="0" style="stop-color:#FEE916"/>
						<stop  offset="0" style="stop-color:#FED50E"/>
						<stop  offset="0" style="stop-color:#FECA06"/>
						<stop  offset="0" style="stop-color:#FEC601"/>
						<stop  offset="0" style="stop-color:#FDBC09"/>
						<stop  offset="0.9569" style="stop-color:#F8401B"/>
					</linearGradient>
					<path class="st4" d="M232.5,478.8"/>
					
						<linearGradient id="SVGID_5_" gradientUnits="userSpaceOnUse" x1="232.0811" y1="18.7" x2="232.0811" y2="18.7" gradientTransform="matrix(1 0 0 -1 0 499.11)">
						<stop  offset="0" style="stop-color:#FFFF25"/>
						<stop  offset="0" style="stop-color:#FEE916"/>
						<stop  offset="0" style="stop-color:#FED50E"/>
						<stop  offset="0" style="stop-color:#FECA06"/>
						<stop  offset="0" style="stop-color:#FEC601"/>
						<stop  offset="0" style="stop-color:#FDBC09"/>
						<stop  offset="0.9569" style="stop-color:#F8401B"/>
					</linearGradient>
					<path class="st5" d="M232.1,480.4"/>
					
						<linearGradient id="SVGID_6_" gradientUnits="userSpaceOnUse" x1="232.0811" y1="18.7" x2="232.0811" y2="18.7" gradientTransform="matrix(1 0 0 -1 0 499.11)">
						<stop  offset="0" style="stop-color:#FFFF25"/>
						<stop  offset="0" style="stop-color:#FEE916"/>
						<stop  offset="0" style="stop-color:#FED50E"/>
						<stop  offset="0" style="stop-color:#FECA06"/>
						<stop  offset="0" style="stop-color:#FEC601"/>
						<stop  offset="0" style="stop-color:#FDBC09"/>
						<stop  offset="0.9569" style="stop-color:#F8401B"/>
					</linearGradient>
					<path class="st6" d="M232.1,480.4"/>
					<g>
						
							<linearGradient id="SVGID_7_" gradientUnits="userSpaceOnUse" x1="235.2511" y1="20.24" x2="235.2511" y2="20.24" gradientTransform="matrix(1 0 0 -1 0 499.11)">
							<stop  offset="0" style="stop-color:#FFFF25"/>
							<stop  offset="0" style="stop-color:#FEE916"/>
							<stop  offset="0" style="stop-color:#FED50E"/>
							<stop  offset="0" style="stop-color:#FECA06"/>
							<stop  offset="0" style="stop-color:#FEC601"/>
							<stop  offset="0" style="stop-color:#FDBC09"/>
							<stop  offset="0.9569" style="stop-color:#F8401B"/>
						</linearGradient>
						<path class="st7" d="M235.3,478.9"/>
					</g>
				</g>
			</g>
		</g>
	</g>
	<g id="Capa_3">
		<path class="st8" d="M95.5-22.2"/>
		<g>
			<g>
				<path class="st9" d="M415.5,489.8"/>
				<g>
					<path class="st9" d="M235,471.8c0,0-40.8-54.4-93.8-83.6c0,0-91.1-42.9-72.5-143.7c0,0,34.5-116.4,9.7-171.1
						c0,0,24.8,33.6,71.7,25c0,0,49.1-7.8,87.1-33.6"/>
					<path class="st9" d="M235,471.8c0,0,37.5-54.4,90.2-83.6c0,0,90.6-42.9,72.2-143.7c0,0-34.3-116.4-9.7-171.1
						c0,0-24.7,33.6-71.3,25c0,0-45.8-7.8-83.6-33.6"/>
					<path class="st9" d="M232.8,471.8"/>
					<path class="st9" d="M232.4,473.3"/>
					<path class="st9" d="M232.4,473.3"/>
					<g>
						<path class="st9" d="M235,471.9"/>
					</g>
				</g>
			</g>
		</g>
		<text transform="matrix(0.8424 0 0 1 99.3737 225.147)" class="st10 st11 st12">Vestiduras</text>
		<text transform="matrix(1.0285 0 0 1 132.4797 301.127)" class="st10 st11 st13">Winnfed</text>
	</g>
</g>
</svg>
